<svg width="325" height="40" viewBox="0 0 325 40" fill="none" xmlns="http://www.w3.org/2000/svg">
<path d="M20 0L5.9375 10.2273V25.7812H14.1406V13.211H25.8594V25.7812H34.0625V10.2273L20 0Z" fill="#E1A932"/>
<path d="M16.4844 15.5548H23.5156V25.7812H16.4844V15.5548Z" fill="#E1A932"/>
<path d="M16.4844 28.125H23.5156V30.4688H16.4844V28.125Z" fill="#E1A932"/>
<path d="M9.45312 28.125H14.1406V40H9.45312V28.125Z" fill="#E1A932"/>
<path d="M25.8594 28.125H30.5469V40H25.8594V28.125Z" fill="#E1A932"/>
<path d="M57.7216 11.0455H61.5909L66.7727 23.6932H66.9773L72.1591 11.0455H76.0284V28.5H72.9943V16.5085H72.8324L68.0085 28.4489H65.7415L60.9176 16.483H60.7557V28.5H57.7216V11.0455ZM85.0455 28.7557C83.767 28.7557 82.6591 28.4744 81.7216 27.9119C80.7841 27.3494 80.0568 26.5625 79.5398 25.5511C79.0284 24.5398 78.7727 23.358 78.7727 22.0057C78.7727 20.6534 79.0284 19.4687 79.5398 18.4517C80.0568 17.4347 80.7841 16.6449 81.7216 16.0824C82.6591 15.5199 83.767 15.2386 85.0455 15.2386C86.3239 15.2386 87.4318 15.5199 88.3693 16.0824C89.3068 16.6449 90.0313 17.4347 90.5426 18.4517C91.0597 19.4687 91.3182 20.6534 91.3182 22.0057C91.3182 23.358 91.0597 24.5398 90.5426 25.5511C90.0313 26.5625 89.3068 27.3494 88.3693 27.9119C87.4318 28.4744 86.3239 28.7557 85.0455 28.7557ZM85.0625 26.2841C85.7557 26.2841 86.3352 26.0937 86.8011 25.7131C87.267 25.3267 87.6136 24.8097 87.8409 24.1619C88.0739 23.5142 88.1903 22.7926 88.1903 21.9972C88.1903 21.196 88.0739 20.4716 87.8409 19.8239C87.6136 19.1705 87.267 18.6506 86.8011 18.2642C86.3352 17.8778 85.7557 17.6847 85.0625 17.6847C84.3523 17.6847 83.7614 17.8778 83.2898 18.2642C82.8239 18.6506 82.4744 19.1705 82.2415 19.8239C82.0142 20.4716 81.9006 21.196 81.9006 21.9972C81.9006 22.7926 82.0142 23.5142 82.2415 24.1619C82.4744 24.8097 82.8239 25.3267 83.2898 25.7131C83.7614 26.0937 84.3523 26.2841 85.0625 26.2841ZM98.7947 28.7301C97.7663 28.7301 96.8459 28.4659 96.0334 27.9375C95.2209 27.4091 94.5788 26.642 94.1072 25.6364C93.6357 24.6307 93.3999 23.4091 93.3999 21.9716C93.3999 20.517 93.6385 19.2898 94.1158 18.2898C94.5987 17.2841 95.2493 16.5256 96.0675 16.0142C96.8857 15.4972 97.7976 15.2386 98.8033 15.2386C99.5703 15.2386 100.201 15.3693 100.695 15.6307C101.19 15.8864 101.582 16.196 101.871 16.5597C102.161 16.9176 102.386 17.2557 102.545 17.5739H102.673V11.0455H105.766V28.5H102.732V26.4375H102.545C102.386 26.7557 102.156 27.0937 101.854 27.4517C101.553 27.804 101.156 28.1051 100.661 28.3551C100.167 28.6051 99.5447 28.7301 98.7947 28.7301ZM99.6555 26.1989C100.309 26.1989 100.866 26.0227 101.326 25.6705C101.786 25.3125 102.136 24.8153 102.374 24.179C102.613 23.5426 102.732 22.8011 102.732 21.9545C102.732 21.108 102.613 20.3722 102.374 19.7472C102.141 19.1222 101.795 18.6364 101.335 18.2898C100.88 17.9432 100.32 17.7699 99.6555 17.7699C98.968 17.7699 98.3942 17.9489 97.9339 18.3068C97.4737 18.6648 97.1271 19.1591 96.8942 19.7898C96.6612 20.4205 96.5447 21.142 96.5447 21.9545C96.5447 22.7727 96.6612 23.5028 96.8942 24.1449C97.1328 24.7812 97.4822 25.2841 97.9425 25.6534C98.4084 26.017 98.9794 26.1989 99.6555 26.1989ZM117.398 22.9943V15.4091H120.483V28.5H117.491V26.1733H117.355C117.06 26.9062 116.574 27.5057 115.898 27.9716C115.227 28.4375 114.401 28.6705 113.418 28.6705C112.56 28.6705 111.801 28.4801 111.142 28.0994C110.489 27.7131 109.977 27.1534 109.608 26.4205C109.239 25.6818 109.054 24.7898 109.054 23.7443V15.4091H112.139V23.267C112.139 24.0966 112.366 24.7557 112.821 25.2443C113.276 25.733 113.872 25.9773 114.611 25.9773C115.065 25.9773 115.506 25.8665 115.932 25.6449C116.358 25.4233 116.707 25.0938 116.98 24.6562C117.259 24.2131 117.398 23.6591 117.398 22.9943ZM126.741 11.0455V28.5H123.656V11.0455H126.741ZM133.68 28.7642C132.851 28.7642 132.104 28.6165 131.439 28.321C130.78 28.0199 130.257 27.5767 129.871 26.9915C129.49 26.4062 129.3 25.6847 129.3 24.8267C129.3 24.0881 129.436 23.4773 129.709 22.9943C129.982 22.5114 130.354 22.125 130.825 21.8352C131.297 21.5455 131.828 21.3267 132.419 21.179C133.016 21.0256 133.632 20.9148 134.268 20.8466C135.036 20.767 135.658 20.696 136.135 20.6335C136.612 20.5653 136.959 20.4631 137.175 20.3267C137.396 20.1847 137.507 19.9659 137.507 19.6705V19.6193C137.507 18.9773 137.317 18.4801 136.936 18.1278C136.555 17.7756 136.007 17.5994 135.291 17.5994C134.536 17.5994 133.936 17.7642 133.493 18.0938C133.055 18.4233 132.76 18.8125 132.607 19.2614L129.726 18.8523C129.953 18.0568 130.328 17.392 130.851 16.858C131.374 16.3182 132.013 15.9148 132.768 15.6477C133.524 15.375 134.359 15.2386 135.274 15.2386C135.905 15.2386 136.533 15.3125 137.158 15.4602C137.783 15.608 138.354 15.8523 138.871 16.1932C139.388 16.5284 139.803 16.9858 140.115 17.5653C140.433 18.1449 140.592 18.8693 140.592 19.7386V28.5H137.626V26.7017H137.524C137.337 27.0653 137.072 27.4062 136.732 27.7244C136.396 28.0369 135.973 28.2898 135.462 28.483C134.956 28.6705 134.362 28.7642 133.68 28.7642ZM134.482 26.4972C135.101 26.4972 135.638 26.375 136.092 26.1307C136.547 25.8807 136.896 25.5511 137.141 25.142C137.391 24.733 137.516 24.2869 137.516 23.804V22.2614C137.419 22.3409 137.254 22.4148 137.021 22.483C136.794 22.5511 136.538 22.6108 136.254 22.6619C135.97 22.7131 135.689 22.7585 135.411 22.7983C135.132 22.8381 134.891 22.8722 134.686 22.9006C134.226 22.9631 133.814 23.0653 133.45 23.2074C133.087 23.3494 132.8 23.5483 132.589 23.804C132.379 24.054 132.274 24.3778 132.274 24.7756C132.274 25.3438 132.482 25.7727 132.896 26.0625C133.311 26.3523 133.839 26.4972 134.482 26.4972ZM143.695 28.5V15.4091H146.686V17.5909H146.822C147.061 16.8352 147.47 16.2528 148.05 15.8438C148.635 15.429 149.303 15.2216 150.053 15.2216C150.223 15.2216 150.413 15.2301 150.624 15.2472C150.839 15.2585 151.018 15.2784 151.161 15.3068V18.1449C151.03 18.0994 150.822 18.0597 150.538 18.0256C150.26 17.9858 149.99 17.9659 149.729 17.9659C149.166 17.9659 148.661 18.0881 148.212 18.3324C147.768 18.571 147.419 18.9034 147.163 19.3295C146.908 19.7557 146.78 20.2472 146.78 20.804V28.5H143.695ZM162.832 15.8438C162.753 15.0994 162.418 14.5199 161.827 14.1051C161.241 13.6903 160.48 13.483 159.543 13.483C158.884 13.483 158.318 13.5824 157.847 13.7812C157.375 13.9801 157.014 14.25 156.764 14.5909C156.514 14.9318 156.386 15.321 156.381 15.7585C156.381 16.1222 156.463 16.4375 156.628 16.7045C156.798 16.9716 157.028 17.1989 157.318 17.3864C157.608 17.5682 157.929 17.7216 158.281 17.8466C158.634 17.9716 158.989 18.0767 159.347 18.1619L160.983 18.571C161.642 18.7244 162.276 18.9318 162.884 19.1932C163.497 19.4545 164.045 19.7841 164.528 20.1818C165.017 20.5795 165.403 21.0597 165.688 21.6222C165.972 22.1847 166.114 22.8437 166.114 23.5994C166.114 24.6222 165.852 25.5227 165.33 26.3011C164.807 27.0739 164.051 27.679 163.062 28.1165C162.08 28.5483 160.889 28.7642 159.491 28.7642C158.134 28.7642 156.955 28.554 155.955 28.1335C154.96 27.7131 154.182 27.0994 153.619 26.2926C153.063 25.4858 152.761 24.5028 152.716 23.3438H155.827C155.872 23.9517 156.06 24.4574 156.389 24.8608C156.719 25.2642 157.148 25.5653 157.676 25.7642C158.21 25.9631 158.807 26.0625 159.466 26.0625C160.153 26.0625 160.756 25.9602 161.273 25.7557C161.795 25.5455 162.205 25.2557 162.5 24.8864C162.795 24.5114 162.946 24.0739 162.952 23.5739C162.946 23.1193 162.813 22.7443 162.551 22.4489C162.29 22.1477 161.923 21.8977 161.452 21.6989C160.986 21.4943 160.44 21.3125 159.815 21.1534L157.83 20.642C156.392 20.2727 155.256 19.7131 154.42 18.9631C153.591 18.2074 153.176 17.2045 153.176 15.9545C153.176 14.9261 153.455 14.0256 154.011 13.2528C154.574 12.4801 155.338 11.8807 156.304 11.4545C157.27 11.0227 158.364 10.8068 159.585 10.8068C160.824 10.8068 161.909 11.0227 162.841 11.4545C163.778 11.8807 164.514 12.4744 165.048 13.2358C165.582 13.9915 165.858 14.8608 165.875 15.8438H162.832ZM171.881 20.8295V28.5H168.796V11.0455H171.813V17.6335H171.967C172.273 16.8949 172.748 16.3125 173.39 15.8864C174.038 15.4545 174.862 15.2386 175.862 15.2386C176.771 15.2386 177.563 15.429 178.239 15.8097C178.915 16.1903 179.438 16.7472 179.808 17.4801C180.183 18.2131 180.37 19.108 180.37 20.1648V28.5H177.285V20.642C177.285 19.7614 177.058 19.0767 176.603 18.5881C176.154 18.0937 175.523 17.8466 174.711 17.8466C174.165 17.8466 173.677 17.9659 173.245 18.2045C172.819 18.4375 172.484 18.7756 172.239 19.2188C172.001 19.6619 171.881 20.1989 171.881 20.8295ZM187.282 28.7642C186.452 28.7642 185.705 28.6165 185.04 28.321C184.381 28.0199 183.859 27.5767 183.472 26.9915C183.092 26.4062 182.901 25.6847 182.901 24.8267C182.901 24.0881 183.038 23.4773 183.31 22.9943C183.583 22.5114 183.955 22.125 184.427 21.8352C184.898 21.5455 185.43 21.3267 186.021 21.179C186.617 21.0256 187.234 20.9148 187.87 20.8466C188.637 20.767 189.259 20.696 189.737 20.6335C190.214 20.5653 190.56 20.4631 190.776 20.3267C190.998 20.1847 191.109 19.9659 191.109 19.6705V19.6193C191.109 18.9773 190.918 18.4801 190.538 18.1278C190.157 17.7756 189.609 17.5994 188.893 17.5994C188.137 17.5994 187.538 17.7642 187.094 18.0938C186.657 18.4233 186.362 18.8125 186.208 19.2614L183.327 18.8523C183.555 18.0568 183.93 17.392 184.452 16.858C184.975 16.3182 185.614 15.9148 186.37 15.6477C187.126 15.375 187.961 15.2386 188.876 15.2386C189.506 15.2386 190.134 15.3125 190.759 15.4602C191.384 15.608 191.955 15.8523 192.472 16.1932C192.989 16.5284 193.404 16.9858 193.717 17.5653C194.035 18.1449 194.194 18.8693 194.194 19.7386V28.5H191.228V26.7017H191.126C190.938 27.0653 190.674 27.4062 190.333 27.7244C189.998 28.0369 189.575 28.2898 189.063 28.483C188.558 28.6705 187.964 28.7642 187.282 28.7642ZM188.083 26.4972C188.702 26.4972 189.239 26.375 189.694 26.1307C190.148 25.8807 190.498 25.5511 190.742 25.142C190.992 24.733 191.117 24.2869 191.117 23.804V22.2614C191.021 22.3409 190.856 22.4148 190.623 22.483C190.396 22.5511 190.14 22.6108 189.856 22.6619C189.572 22.7131 189.29 22.7585 189.012 22.7983C188.734 22.8381 188.492 22.8722 188.288 22.9006C187.827 22.9631 187.415 23.0653 187.052 23.2074C186.688 23.3494 186.401 23.5483 186.191 23.804C185.981 24.054 185.876 24.3778 185.876 24.7756C185.876 25.3438 186.083 25.7727 186.498 26.0625C186.913 26.3523 187.441 26.4972 188.083 26.4972ZM203.006 28.7557C201.7 28.7557 200.577 28.4688 199.64 27.8949C198.708 27.321 197.989 26.5284 197.484 25.517C196.984 24.5 196.734 23.3295 196.734 22.0057C196.734 20.6761 196.989 19.5028 197.501 18.4858C198.012 17.4631 198.734 16.6676 199.665 16.0994C200.603 15.5256 201.711 15.2386 202.989 15.2386C204.052 15.2386 204.992 15.4347 205.81 15.8267C206.634 16.2131 207.29 16.7614 207.779 17.4716C208.268 18.1761 208.546 19 208.614 19.9432H205.665C205.546 19.3125 205.262 18.7869 204.813 18.3665C204.37 17.9403 203.776 17.7273 203.032 17.7273C202.401 17.7273 201.847 17.8977 201.37 18.2386C200.893 18.5739 200.521 19.0568 200.254 19.6875C199.992 20.3182 199.862 21.0739 199.862 21.9545C199.862 22.8466 199.992 23.6136 200.254 24.2557C200.515 24.892 200.881 25.3835 201.353 25.7301C201.83 26.071 202.39 26.2415 203.032 26.2415C203.487 26.2415 203.893 26.1562 204.251 25.9858C204.614 25.8097 204.918 25.5568 205.163 25.2273C205.407 24.8977 205.575 24.4972 205.665 24.0256H208.614C208.54 24.9517 208.268 25.7727 207.796 26.4886C207.325 27.1989 206.683 27.7557 205.87 28.1591C205.058 28.5568 204.103 28.7557 203.006 28.7557ZM213.96 24.392L213.952 20.6676H214.446L219.151 15.4091H222.756L216.969 21.8523H216.33L213.96 24.392ZM211.148 28.5V11.0455H214.233V28.5H211.148ZM219.364 28.5L215.102 22.5426L217.182 20.3693L223.054 28.5H219.364ZM230.901 28.5V11.0455H237.583C238.844 11.0455 239.893 11.2443 240.728 11.642C241.569 12.0341 242.197 12.571 242.612 13.2528C243.032 13.9347 243.242 14.7074 243.242 15.571C243.242 16.2812 243.106 16.8892 242.833 17.3949C242.56 17.8949 242.194 18.3011 241.734 18.6136C241.273 18.9261 240.759 19.1506 240.191 19.2869V19.4574C240.81 19.4915 241.404 19.6818 241.972 20.0284C242.546 20.3693 243.015 20.8523 243.379 21.4773C243.742 22.1023 243.924 22.858 243.924 23.7443C243.924 24.6477 243.705 25.4602 243.268 26.1818C242.83 26.8977 242.171 27.4631 241.29 27.8778C240.41 28.2926 239.302 28.5 237.967 28.5H230.901ZM234.063 25.858H237.464C238.612 25.858 239.438 25.6392 239.944 25.2017C240.455 24.7585 240.711 24.1903 240.711 23.4972C240.711 22.9801 240.583 22.5142 240.327 22.0994C240.072 21.679 239.708 21.3494 239.237 21.1108C238.765 20.8665 238.202 20.7443 237.549 20.7443H234.063V25.858ZM234.063 18.4688H237.191C237.737 18.4688 238.228 18.3693 238.665 18.1705C239.103 17.9659 239.447 17.679 239.697 17.3097C239.952 16.9347 240.08 16.4915 240.08 15.9801C240.08 15.304 239.842 14.7472 239.364 14.3097C238.893 13.8722 238.191 13.6534 237.259 13.6534H234.063V18.4688ZM254.882 22.9943V15.4091H257.967V28.5H254.976V26.1733H254.839C254.544 26.9062 254.058 27.5057 253.382 27.9716C252.712 28.4375 251.885 28.6705 250.902 28.6705C250.044 28.6705 249.286 28.4801 248.626 28.0994C247.973 27.7131 247.462 27.1534 247.092 26.4205C246.723 25.6818 246.538 24.7898 246.538 23.7443V15.4091H249.624V23.267C249.624 24.0966 249.851 24.7557 250.305 25.2443C250.76 25.733 251.357 25.9773 252.095 25.9773C252.55 25.9773 252.99 25.8665 253.416 25.6449C253.842 25.4233 254.192 25.0938 254.464 24.6562C254.743 24.2131 254.882 23.6591 254.882 22.9943ZM261.14 28.5V15.4091H264.225V28.5H261.14ZM262.691 13.5511C262.202 13.5511 261.782 13.3892 261.43 13.0653C261.077 12.7358 260.901 12.3409 260.901 11.8807C260.901 11.4148 261.077 11.0199 261.43 10.696C261.782 10.3665 262.202 10.2017 262.691 10.2017C263.185 10.2017 263.606 10.3665 263.952 10.696C264.305 11.0199 264.481 11.4148 264.481 11.8807C264.481 12.3409 264.305 12.7358 263.952 13.0653C263.606 13.3892 263.185 13.5511 262.691 13.5511ZM270.483 11.0455V28.5H267.398V11.0455H270.483ZM278.513 28.7301C277.485 28.7301 276.565 28.4659 275.752 27.9375C274.94 27.4091 274.298 26.642 273.826 25.6364C273.354 24.6307 273.119 23.4091 273.119 21.9716C273.119 20.517 273.357 19.2898 273.835 18.2898C274.317 17.2841 274.968 16.5256 275.786 16.0142C276.604 15.4972 277.516 15.2386 278.522 15.2386C279.289 15.2386 279.92 15.3693 280.414 15.6307C280.908 15.8864 281.3 16.196 281.59 16.5597C281.88 16.9176 282.104 17.2557 282.263 17.5739H282.391V11.0455H285.485V28.5H282.451V26.4375H282.263C282.104 26.7557 281.874 27.0937 281.573 27.4517C281.272 27.804 280.874 28.1051 280.38 28.3551C279.886 28.6051 279.263 28.7301 278.513 28.7301ZM279.374 26.1989C280.028 26.1989 280.585 26.0227 281.045 25.6705C281.505 25.3125 281.854 24.8153 282.093 24.179C282.332 23.5426 282.451 22.8011 282.451 21.9545C282.451 21.108 282.332 20.3722 282.093 19.7472C281.86 19.1222 281.513 18.6364 281.053 18.2898C280.599 17.9432 280.039 17.7699 279.374 17.7699C278.687 17.7699 278.113 17.9489 277.653 18.3068C277.192 18.6648 276.846 19.1591 276.613 19.7898C276.38 20.4205 276.263 21.142 276.263 21.9545C276.263 22.7727 276.38 23.5028 276.613 24.1449C276.852 24.7812 277.201 25.2841 277.661 25.6534C278.127 26.017 278.698 26.1989 279.374 26.1989ZM294.568 28.7557C293.256 28.7557 292.122 28.483 291.168 27.9375C290.219 27.3864 289.489 26.608 288.977 25.6023C288.466 24.5909 288.21 23.4006 288.21 22.0312C288.21 20.6847 288.466 19.5028 288.977 18.4858C289.494 17.4631 290.216 16.6676 291.142 16.0994C292.068 15.5256 293.156 15.2386 294.406 15.2386C295.213 15.2386 295.974 15.3693 296.69 15.6307C297.412 15.8864 298.048 16.2841 298.599 16.8239C299.156 17.3636 299.594 18.0511 299.912 18.8864C300.23 19.7159 300.389 20.7045 300.389 21.8523V22.7983H289.659V20.7188H297.432C297.426 20.1278 297.298 19.6023 297.048 19.142C296.798 18.6761 296.449 18.3097 296 18.0426C295.557 17.7756 295.04 17.642 294.449 17.642C293.818 17.642 293.264 17.7955 292.787 18.1023C292.31 18.4034 291.938 18.8011 291.67 19.2955C291.409 19.7841 291.276 20.321 291.27 20.9062V22.7216C291.27 23.483 291.409 24.1364 291.688 24.6818C291.966 25.2216 292.355 25.6364 292.855 25.9261C293.355 26.2102 293.94 26.3523 294.611 26.3523C295.06 26.3523 295.466 26.2898 295.83 26.1648C296.193 26.0341 296.509 25.8438 296.776 25.5938C297.043 25.3438 297.244 25.0341 297.381 24.6648L300.261 24.9886C300.08 25.75 299.733 26.4148 299.222 26.983C298.716 27.5455 298.068 27.983 297.278 28.2955C296.489 28.6023 295.585 28.7557 294.568 28.7557ZM302.999 28.5V15.4091H305.991V17.5909H306.127C306.366 16.8352 306.775 16.2528 307.354 15.8438C307.94 15.429 308.607 15.2216 309.357 15.2216C309.528 15.2216 309.718 15.2301 309.928 15.2472C310.144 15.2585 310.323 15.2784 310.465 15.3068V18.1449C310.335 18.0994 310.127 18.0597 309.843 18.0256C309.565 17.9858 309.295 17.9659 309.033 17.9659C308.471 17.9659 307.965 18.0881 307.516 18.3324C307.073 18.571 306.724 18.9034 306.468 19.3295C306.212 19.7557 306.085 20.2472 306.085 20.804V28.5H302.999ZM322.862 18.8693L320.049 19.1761C319.969 18.892 319.83 18.625 319.631 18.375C319.438 18.125 319.177 17.9233 318.847 17.7699C318.518 17.6165 318.114 17.5398 317.637 17.5398C316.995 17.5398 316.455 17.679 316.018 17.9574C315.586 18.2358 315.373 18.5966 315.379 19.0398C315.373 19.4205 315.512 19.7301 315.796 19.9688C316.086 20.2074 316.563 20.4034 317.228 20.5568L319.461 21.0341C320.7 21.3011 321.62 21.7244 322.222 22.304C322.83 22.8835 323.137 23.642 323.143 24.5795C323.137 25.4034 322.896 26.1307 322.418 26.7614C321.947 27.3864 321.29 27.875 320.45 28.2273C319.609 28.5795 318.643 28.7557 317.552 28.7557C315.95 28.7557 314.66 28.4205 313.683 27.75C312.705 27.0739 312.123 26.1335 311.935 24.929L314.944 24.6392C315.08 25.2301 315.37 25.6761 315.813 25.9773C316.256 26.2784 316.833 26.429 317.543 26.429C318.276 26.429 318.864 26.2784 319.308 25.9773C319.756 25.6761 319.981 25.304 319.981 24.8608C319.981 24.4858 319.836 24.1761 319.546 23.9318C319.262 23.6875 318.819 23.5 318.217 23.3693L315.984 22.9006C314.728 22.6392 313.799 22.1989 313.197 21.5795C312.594 20.9545 312.296 20.1648 312.302 19.2102C312.296 18.4034 312.515 17.7045 312.958 17.1136C313.407 16.517 314.029 16.0568 314.825 15.733C315.626 15.4034 316.549 15.2386 317.594 15.2386C319.129 15.2386 320.336 15.5653 321.217 16.2188C322.103 16.8722 322.651 17.7557 322.862 18.8693Z" fill="#936400"/>
</svg>
