<svg width="48" height="48" viewBox="0 0 48 48" fill="none" xmlns="http://www.w3.org/2000/svg">
<g clip-path="url(#clip0_8013_645)">
<path d="M23.8267 -0.0577005C23.7474 -0.0432774 23.6681 -0.0216429 23.596 -8.20309e-06C22.7378 0.194704 22.132 0.966339 22.1537 1.84615V7.38461C22.1465 8.04807 22.4926 8.66826 23.0695 9.0072C23.6465 9.33893 24.3532 9.33893 24.9301 9.0072C25.507 8.66826 25.8532 8.04807 25.846 7.38461V1.84615C25.8676 1.31249 25.6513 0.800473 25.269 0.439895C24.8796 0.0721072 24.3532 -0.108181 23.8267 -0.0577005ZM7.96136 6.46153C7.26905 6.58413 6.71376 7.08893 6.51905 7.75961C6.32434 8.43749 6.52626 9.15865 7.03828 9.63461L10.9614 13.5577C11.4085 14.1058 12.1224 14.3582 12.8147 14.1995C13.4998 14.0409 14.0407 13.5 14.1993 12.8149C14.358 12.1226 14.1056 11.4086 13.5575 10.9615L9.63443 7.03845C9.25222 6.6274 8.69694 6.41826 8.13443 6.46153C8.07674 6.46153 8.01905 6.46153 7.96136 6.46153ZM39.4614 6.46153C39.0431 6.51922 38.6537 6.72836 38.3652 7.03845L34.4421 10.9615C33.8941 11.4086 33.6416 12.1226 33.8003 12.8149C33.959 13.5 34.4998 14.0409 35.1849 14.1995C35.8772 14.3582 36.5912 14.1058 37.0383 13.5577L40.9614 9.63461C41.5383 9.08653 41.7041 8.22836 41.3652 7.5072C41.0191 6.77884 40.2546 6.36057 39.4614 6.46153ZM23.9998 13.1538C18.0719 13.1538 13.2691 17.9567 13.2691 23.8846C13.2691 29.9711 18.519 33.512 18.519 36.6346V37.3846C18.519 38.1418 19.1537 38.7692 19.9037 38.7692H28.096C28.846 38.7692 29.4806 38.1418 29.4806 37.3846V36.6346C29.4806 33.5048 34.7306 30.0721 34.7306 23.8846C34.7306 17.9567 29.9277 13.1538 23.9998 13.1538ZM23.9998 16.7308C25.3556 16.7308 26.6176 17.113 27.6921 17.7692C27.5623 17.762 27.4181 17.7115 27.2883 17.7115C22.2474 17.7115 18.1729 21.7933 18.1729 26.7692C18.1729 27.0793 18.2017 27.3894 18.2306 27.6923C17.4229 26.5601 16.9037 25.1394 16.9037 23.6538C16.9037 19.8101 20.0984 16.7308 23.9998 16.7308ZM1.32674 22.1538C0.309916 22.2981 -0.404027 23.2428 -0.259796 24.2596C-0.115565 25.2764 0.829147 25.9904 1.84597 25.8461H7.38444C8.0479 25.8534 8.66809 25.5072 9.00703 24.9303C9.33876 24.3534 9.33876 23.6466 9.00703 23.0697C8.66809 22.4928 8.0479 22.1466 7.38444 22.1538H1.84597C1.78828 22.1538 1.73059 22.1538 1.6729 22.1538C1.6152 22.1538 1.55751 22.1538 1.49982 22.1538C1.44213 22.1538 1.38443 22.1538 1.32674 22.1538ZM40.096 22.1538C39.0791 22.2981 38.3652 23.2428 38.5094 24.2596C38.6537 25.2764 39.5984 25.9904 40.6152 25.8461H46.1537C46.8171 25.8534 47.4373 25.5072 47.7763 24.9303C48.108 24.3534 48.108 23.6466 47.7763 23.0697C47.4373 22.4928 46.8171 22.1466 46.1537 22.1538H40.6152C40.5575 22.1538 40.4998 22.1538 40.4421 22.1538C40.3844 22.1538 40.3267 22.1538 40.2691 22.1538C40.2114 22.1538 40.1537 22.1538 40.096 22.1538ZM12.0575 33.8654C11.6392 33.9231 11.2498 34.1322 10.9614 34.4423L7.03828 38.3654C6.4902 38.8125 6.2378 39.5264 6.39645 40.2187C6.55511 40.9038 7.09597 41.4447 7.78107 41.6034C8.47338 41.762 9.18732 41.5096 9.63443 40.9615L13.5575 37.0385C14.1056 36.512 14.2715 35.6971 13.9758 34.9976C13.6873 34.2981 12.9878 33.851 12.2306 33.8654C12.1729 33.8654 12.1152 33.8654 12.0575 33.8654ZM35.3652 33.8654C34.6729 33.988 34.1176 34.4928 33.9229 35.1635C33.7282 35.8413 33.9301 36.5625 34.4421 37.0385L38.3652 40.9615C38.8123 41.5096 39.5263 41.762 40.2186 41.6034C40.9037 41.4447 41.4445 40.9038 41.6032 40.2187C41.7618 39.5264 41.5094 38.8125 40.9614 38.3654L37.0383 34.4423C36.6921 34.0745 36.2162 33.8726 35.7114 33.8654C35.6537 33.8654 35.596 33.8654 35.5383 33.8654C35.4806 33.8654 35.4229 33.8654 35.3652 33.8654ZM19.846 40.6154C19.0888 40.6154 18.4614 41.2356 18.4614 42V44.7692C18.4614 45.5336 19.0888 46.1538 19.846 46.1538H20.9998C21.6056 47.2139 22.6945 47.9423 23.9998 47.9423C25.3051 47.9423 26.394 47.2139 26.9998 46.1538H28.1537C28.9109 46.1538 29.5383 45.5336 29.5383 44.7692V42C29.5383 41.2356 28.9109 40.6154 28.1537 40.6154H19.846Z" fill="#936400"/>
</g>
<defs>
<clipPath id="clip0_8013_645">
<rect width="48" height="48" fill="white"/>
</clipPath>
</defs>
</svg>
