<svg width="48" height="48" viewBox="0 0 48 48" fill="none" xmlns="http://www.w3.org/2000/svg">
<path d="M41.3222 25.3484C41.178 25.3052 40.2838 24.8941 40.8463 23.1633H40.8318C42.2886 21.6489 43.3992 19.197 43.3992 16.7883C43.3992 13.0816 40.9761 11.1417 38.1564 11.1417C35.3367 11.1417 32.928 13.0816 32.928 16.7883C32.928 19.2042 34.0314 21.6706 35.4953 23.185C35.7044 23.7547 35.6972 24.1946 35.5891 24.5191C37.0963 25.8172 39.2814 28.4999 38.5314 33.6057C37.803 31.2835 36.7068 29.1778 35.3439 27.584C34.0025 25.7595 30.8222 24.1081 27.9016 23.1273C27.7285 23.0696 26.6251 22.5648 27.3174 20.4374H27.303C29.0987 18.5696 30.4617 15.548 30.4617 12.5768C30.4617 8.01191 27.4761 5.61768 24.0001 5.61768C20.5242 5.61768 17.553 8.01191 17.553 12.5768C17.553 15.5624 18.916 18.5912 20.7117 20.459C21.4184 22.334 20.1636 23.0335 19.8967 23.1273C18.0145 23.8196 15.9737 24.8076 14.4376 25.9326C14.3511 25.9903 14.279 26.0624 14.1996 26.1201C13.8318 26.4085 13.5073 26.697 13.2117 26.9927C13.0458 27.1585 12.8799 27.3316 12.7213 27.5119V27.5191C11.3222 29.1129 10.2117 31.2547 9.46886 33.6057C8.71886 28.4999 10.8967 25.8172 12.4112 24.5263C12.303 24.2018 12.2958 23.7619 12.5049 23.185C13.9689 21.6706 15.0722 19.2114 15.0722 16.7883C15.0722 13.0888 12.6636 11.1417 9.84386 11.1417C7.02415 11.1417 4.60108 13.0888 4.60108 16.7883C4.60108 19.2042 5.71165 21.6489 7.16838 23.1706H7.15396C7.71646 24.9013 6.82223 25.3052 6.678 25.3557C3.58425 26.3941 0.101074 28.3557 0.101074 30.3677C0.101074 30.8941 0.101074 34.6369 0.101074 35.1633C0.101074 37.8244 8.97127 42.3316 24.0362 42.3316C39.1011 42.3316 47.8992 37.8244 47.8992 35.1633C47.8992 34.6441 47.8992 30.8941 47.8992 30.3677C47.8992 28.3484 44.4232 26.3941 41.3222 25.3484Z" fill="#936400"/>
</svg>
