<svg width="48" height="48" viewBox="0 0 48 48" fill="none" xmlns="http://www.w3.org/2000/svg">
<path d="M20.3078 7.73071C11.2645 7.73071 4.03857 14.9567 4.03857 23.9999C4.03857 33.0432 11.2645 40.2692 20.3078 40.2692C29.3511 40.2692 36.577 33.0432 36.577 23.9999C36.577 14.9567 29.3511 7.73071 20.3078 7.73071ZM29.7117 7.96148C35.2501 11.286 38.9424 17.1706 38.9424 23.9999C38.9424 30.8293 35.2501 36.9014 29.7117 40.0384C37.8318 39.1153 43.9617 32.3076 43.9617 23.9999C43.9617 15.6923 37.6516 8.88456 29.7117 7.96148ZM19.0386 14.423H21.404V16.4423C23.0626 16.4423 24.0001 16.8245 24.9232 17.1923L24.1732 19.9615C23.6179 19.5937 22.5001 19.0384 20.654 19.0384C19.1756 19.0384 18.6347 19.7523 18.6347 20.3076C18.6347 21.0432 19.5578 21.5913 21.404 22.3269C24.1732 23.2499 25.2693 24.5552 25.2693 26.7692C25.6371 28.9831 24.1732 30.8437 21.404 31.2115V33.5769H19.0386V31.3846C17.3799 31.3846 15.8655 30.8293 14.9424 30.4615L15.6924 27.6922C16.6155 28.2475 18.0794 28.7884 19.5578 28.7884C20.8487 28.7884 21.8078 28.2692 21.8078 27.3461C21.8078 26.423 21.0578 25.8245 19.2117 25.2692C16.6299 24.3461 14.9424 23.286 14.9424 20.8846C14.9424 18.8509 16.4568 17.1706 19.0386 16.6153V14.423Z" fill="#936400"/>
</svg>
