<svg width="49" height="48" viewBox="0 0 49 48" fill="none" xmlns="http://www.w3.org/2000/svg">
<g clip-path="url(#clip0_8013_629)">
<path d="M31.0192 9.34615C30.4928 9.3822 29.9736 9.56249 29.4038 9.86538C26.851 11.2211 17.5913 16.4928 17.5769 16.5C16.2644 17.2716 15.8245 18.9952 16.5962 20.3077C17.3245 21.5481 18.8966 22.0096 20.1731 21.4038C20.3029 21.3389 24.7957 19.0385 26.8654 17.9423C29.0721 16.774 30.4423 18.1154 30.4423 18.1154C30.4423 18.1154 38.4111 26.0625 40.6538 28.2115C42.1106 29.6106 44.1082 28.9255 44.75 28.8461C45.3918 28.7668 48.5 28.1538 48.5 28.1538V13.6154C48.5 13.6154 43.7404 14.726 40.9423 15.2885C40.0841 15.4615 39.0385 14.8846 39.0385 14.8846C39.0385 14.8846 36.7163 12.9014 34.1346 10.7308C32.8293 9.6274 31.899 9.28124 31.0192 9.34615ZM18.5577 9.51922C15.6154 9.51922 9.5 13.5577 9.5 13.5577C9.5 13.5577 7.76923 14.6755 5.28846 13.6731L0.5 12V28.6154C0.5 28.6154 1.87019 29.0409 3.09615 29.5385C3.3774 28.7524 3.80289 28.0024 4.42308 27.4038C6.45673 25.4639 9.83894 25.4423 11.6923 27.3461C12.2476 27.9231 12.6442 28.6659 12.8462 29.4231C13.5962 29.6538 14.2596 30.0144 14.8077 30.5769C15.3702 31.1538 15.7596 31.8389 15.9615 32.5961C16.7115 32.8269 17.375 33.2452 17.9231 33.8077C18.5361 34.4423 18.9399 35.2284 19.1346 36.0577C19.9135 36.2885 20.6418 36.6851 21.2115 37.2692C22.3221 38.4086 22.7188 39.9808 22.4808 41.4808C22.4808 41.4808 23.1514 42.2668 23.5769 42.6923C24.399 43.5144 25.7548 43.5144 26.5769 42.6923C27.399 41.8702 27.399 40.5144 26.5769 39.6923C26.5481 39.6635 23.5337 36.6202 23.8077 36.3461C24.0817 36.0721 27.8966 40.0312 27.9038 40.0385C28.7188 40.8534 30.0312 40.8534 30.8462 40.0385C31.6394 39.238 31.6611 37.976 30.9038 37.1538C30.8894 37.1394 27.4567 33.4471 27.6731 33.2308C27.9183 32.9856 32.0505 37.2692 32.0577 37.2692C32.887 38.0336 34.1923 38.0192 35 37.2115C35.8077 36.4038 35.7716 35.0986 35 34.2692C34.9928 34.262 31.6106 30.6202 31.8269 30.4038C32.0433 30.1875 35.5697 33.6851 35.5769 33.6923C36.399 34.5144 37.6971 34.5144 38.5192 33.6923C39.3413 32.8702 39.3413 31.5144 38.5192 30.6923C38.5048 30.6779 33.9183 26.1562 29.2885 21.5192C29.2885 21.5192 27.9471 20.0769 26.1154 20.8846C24.8317 21.4471 23.1514 22.262 21.9038 22.8461C20.5337 23.5673 19.3221 23.7692 19.0769 23.7692C16.4231 23.7692 14.2885 21.6274 14.2885 18.9808C14.2885 17.2644 15.1827 15.7356 16.5385 14.8846C18.4495 13.5577 22.8846 11.25 22.8846 11.25C22.8846 11.25 21.5 9.51922 18.5577 9.51922ZM8.11538 28.1538C7.37981 28.1755 6.62981 28.4495 6.03846 29.0192C4.85577 30.1586 4.05529 32.2572 5.11538 33.4615C6.16827 34.6659 7.41587 33.9014 8.34615 33.6923C8.08654 34.6082 7.27885 35.4952 8.23077 36.6923C9.17548 37.8966 10.5313 37.1322 11.4615 36.9231C11.2019 37.8389 10.4303 38.8053 11.3462 39.9231C12.262 41.0409 13.8125 40.4062 14.8077 40.0961C14.4255 41.0841 13.5817 42.1875 14.6346 43.3846C15.6875 44.5817 18.1178 44.0048 19.3077 42.8654C20.4904 41.7332 20.5841 39.9086 19.5385 38.8269C18.8173 38.0913 17.7572 37.9399 16.7692 38.25C17.1587 37.262 17.0505 36.1226 16.3077 35.3654C15.6442 34.6803 14.6418 34.5216 13.7115 34.7308C13.9712 33.8149 13.863 32.8269 13.1923 32.1346C12.5288 31.4567 11.5264 31.2909 10.5962 31.5C10.8558 30.5841 10.7404 29.5961 10.0769 28.9038C9.55048 28.363 8.85096 28.1322 8.11538 28.1538Z" fill="#936400"/>
</g>
<defs>
<clipPath id="clip0_8013_629">
<rect width="48" height="48" fill="white" transform="translate(0.5)"/>
</clipPath>
</defs>
</svg>
