<svg width="49" height="48" viewBox="0 0 49 48" fill="none" xmlns="http://www.w3.org/2000/svg">
<path d="M27.3992 1.92543C29.0218 4.62254 27.1828 7.99754 25.8127 10.9398C24.63 13.4711 24.8102 16.3413 27.9761 15.9735C31.791 15.5336 33.3343 15.2307 36.5795 15.0072C39.8607 14.7836 40.892 16.1249 40.892 17.3725C40.892 19.3846 40.2213 19.536 40.2213 20.3076C40.2213 21.0793 42.7381 20.5817 42.7381 23.1129C42.7381 25.6442 40.7694 25.5648 40.7694 26.2716C40.7694 26.9783 42.6877 27.2956 42.6877 29.3221C42.6877 31.3485 40.1059 31.6153 40.1059 32.4519C40.1059 33.2884 40.9425 33.5048 40.9425 34.7596C40.9425 36.0144 38.3247 38.7692 29.0939 38.7692C13.3655 38.7692 15.2261 35.0048 7.88477 35.0048V21.0793C11.7069 21.0793 11.4977 17.6971 14.1372 15.1153C16.7982 12.512 21.8896 6.61293 22.892 1.96148C23.5554 -1.1539 26.404 0.259561 27.3992 1.92543Z" fill="#936400"/>
</svg>
